<svg version="1.1" id="Layer_1" xmlns="http://www.w3.org/2000/svg" xmlns:xlink="http://www.w3.org/1999/xlink" x="0px" y="0px"
	 width="100%" viewBox="0 0 1024 576" enable-background="new 0 0 1024 576" xml:space="preserve">
<path fill="#000000" opacity="1.000000" stroke="none" 
	d="
M584.949219,258.958282 
	C573.191467,270.050323 558.985291,274.819550 543.774414,277.137726 
	C536.507812,278.245117 529.182251,277.851929 521.860413,277.220825 
	C517.798584,276.870728 515.998901,275.284119 517.113586,271.134766 
	C521.725586,253.966782 528.073975,237.531509 539.023987,223.339478 
	C547.941345,211.781921 560.270691,204.766449 573.741211,199.895752 
	C583.446655,196.386444 593.543030,194.064102 603.852478,193.019745 
	C611.031738,192.292496 613.249390,194.663193 611.638489,201.554184 
	C607.534058,219.111511 602.546387,236.366104 591.865112,251.300598 
	C589.945251,253.985001 587.432373,256.245239 584.949219,258.958282 
z"/>
<path fill="#000000" opacity="1.000000" stroke="none" 
	d="
M417.936218,218.915680 
	C416.286407,212.220352 414.627991,205.940109 413.252258,199.598541 
	C412.024384,193.938614 413.168915,192.389877 418.934845,192.780655 
	C454.785583,195.210266 482.440399,210.146240 497.118744,244.586136 
	C500.842529,253.323212 504.120819,262.206848 506.549316,271.413757 
	C507.635864,275.533081 506.111115,276.898163 502.256409,277.071381 
	C487.290131,277.743927 472.595917,276.410370 458.594452,270.733765 
	C442.094055,264.044037 431.253479,251.539536 424.005737,235.717468 
	C421.589935,230.443665 420.011719,224.786163 417.936218,218.915680 
z"/>
<path fill="#000000" opacity="1.000000" stroke="none" 
	d="
M525.753601,232.638214 
	C521.609680,239.820587 517.396362,246.501221 511.478333,253.458344 
	C506.762573,245.628769 502.247650,238.736176 498.342163,231.514038 
	C491.635284,219.111526 486.471405,206.243164 487.628387,191.626511 
	C488.793945,176.901184 494.852966,164.791702 506.290436,155.482574 
	C511.381226,151.339081 513.670044,151.464905 518.452271,155.905762 
	C535.287476,171.539230 540.754578,190.394485 534.177429,212.540268 
	C532.134705,219.418198 529.225403,225.951828 525.753601,232.638214 
z"/>
<path fill="#000000" opacity="1.000000" stroke="none" 
	d="
M581.418213,303.179688 
	C598.005798,309.110748 605.618774,320.539612 605.317444,338.606445 
	C605.105713,351.295715 595.682007,363.563416 582.990967,367.591339 
	C574.870667,370.168640 566.869324,369.823822 559.160645,366.118591 
	C556.736755,364.953461 555.023254,364.377930 552.580322,366.612823 
	C549.760925,369.192169 545.914551,369.535217 542.229126,367.996826 
	C538.630127,366.494537 539.261658,362.971436 539.122314,360.187286 
	C538.831360,354.371948 538.755493,348.505737 539.174500,342.702515 
	C540.413940,325.535645 538.320923,308.401001 538.944031,291.250122 
	C539.229187,283.401886 543.301208,280.248352 549.615295,282.893921 
	C553.308472,284.441376 553.910828,287.651184 554.133118,291.102051 
	C554.450806,296.035339 553.632202,301.028778 554.814026,306.687469 
	C563.353577,302.520416 571.948730,300.567627 581.418213,303.179688 
M578.721558,317.548920 
	C564.806030,313.875305 554.955383,320.258087 553.641785,334.200500 
	C553.003723,340.972839 555.051575,347.248932 560.756470,351.364899 
	C566.760803,355.696960 573.415527,357.000244 580.423462,353.287933 
	C587.187195,349.704926 590.748352,344.233948 590.898010,336.506958 
	C591.066772,327.792297 587.426208,321.505890 578.721558,317.548920 
z"/>
<path fill="#000000" opacity="1.000000" stroke="none" 
	d="
M521.450073,350.179626 
	C528.659119,354.028870 529.159058,359.532104 522.597412,363.565979 
	C510.897461,370.758606 498.694336,371.659698 486.756226,364.260040 
	C474.688354,356.779968 469.516144,345.399109 471.208496,331.505219 
	C473.270599,314.575989 483.111908,304.695526 498.696442,302.585754 
	C514.991760,300.379761 529.641052,311.260620 532.242249,327.513580 
	C532.478577,328.990356 532.678406,330.475281 532.829285,331.963104 
	C533.393250,337.523499 531.178589,340.125275 525.568359,340.141083 
	C514.418518,340.172455 503.268158,340.033325 492.118195,340.050232 
	C490.229218,340.053070 487.710297,339.217407 486.746918,341.494751 
	C485.916107,343.458710 487.431213,345.319763 488.561127,346.949951 
	C494.106689,354.950745 504.213776,357.341553 512.740662,352.715363 
	C515.349792,351.299866 517.781128,349.338379 521.450073,350.179626 
M512.118469,327.033478 
	C513.821594,326.777008 515.824951,327.647339 517.107422,325.776642 
	C514.352661,319.098938 508.717651,315.749298 501.264069,316.309540 
	C494.605408,316.809998 489.335144,320.717621 487.800598,327.031738 
	C495.733032,327.031738 503.472870,327.031738 512.118469,327.033478 
z"/>
<path fill="#000000" opacity="1.000000" stroke="none" 
	d="
M299.061279,368.482971 
	C285.712128,370.791077 275.501740,366.085480 271.079590,355.878052 
	C264.872131,341.549652 275.019348,325.842834 291.131897,324.803040 
	C296.515167,324.455658 301.735474,325.130524 307.547424,327.657837 
	C307.271393,322.129639 304.678528,319.126648 300.452423,317.457001 
	C295.807220,315.621826 291.004364,316.069153 286.182678,316.984711 
	C278.741760,318.397583 275.622192,317.117798 274.844208,312.615753 
	C274.008026,307.776672 276.669373,304.993927 283.693115,303.456726 
	C292.189423,301.597260 300.546814,301.782959 308.643341,305.319946 
	C316.897034,308.925598 321.255951,315.485474 322.252075,324.193268 
	C323.730865,337.120483 322.157593,350.132629 323.001678,363.102448 
	C323.321045,368.008911 319.551178,370.652863 314.354004,367.745697 
	C308.604401,364.529449 304.337067,366.511200 299.061279,368.482971 
M290.544495,338.674286 
	C284.759216,341.731476 282.962799,344.906799 284.346344,349.630035 
	C285.565826,353.792999 289.492004,356.065765 295.115387,355.863922 
	C301.081421,355.649780 305.822937,352.485779 306.701050,348.129517 
	C307.427002,344.527985 305.831726,342.035461 302.928528,340.127197 
	C299.313385,337.751007 295.341034,337.999420 290.544495,338.674286 
z"/>
<path fill="#000000" opacity="1.000000" stroke="none" 
	d="
M621.790161,361.205811 
	C615.864319,354.822357 614.172119,347.250031 613.989441,339.271545 
	C613.779785,330.112946 613.841797,320.946320 613.901184,311.783966 
	C613.940430,305.724976 616.235718,302.729095 620.706299,302.504578 
	C625.850098,302.246185 628.856812,305.185364 629.031921,311.474304 
	C629.300842,321.130371 629.158875,330.797424 629.234741,340.459442 
	C629.310242,350.073639 634.097351,355.570984 642.194946,355.424072 
	C649.588684,355.289917 654.792908,349.210419 654.908508,340.396820 
	C655.033020,330.902161 654.946838,321.403900 655.151978,311.911530 
	C655.227173,308.433014 655.449829,304.713806 659.493713,303.116333 
	C664.836487,301.005737 669.953674,304.000977 670.033875,309.883392 
	C670.278992,327.872131 670.228271,345.866791 670.090210,363.857605 
	C670.054504,368.509216 665.444824,370.609558 660.329407,367.561646 
	C656.239075,365.124451 653.185669,365.963501 649.257874,367.364227 
	C639.119080,370.979858 629.936218,368.871521 621.790161,361.205811 
z"/>
<path fill="#000000" opacity="1.000000" stroke="none" 
	d="
M222.162109,304.786865 
	C241.831589,297.385986 259.128510,309.236725 259.268799,329.863037 
	C259.334442,339.515564 259.306458,349.168915 259.281494,358.821777 
	C259.262756,366.079163 257.544922,368.335083 252.146271,368.356415 
	C246.507416,368.378693 244.779175,366.108368 244.751144,358.558746 
	C244.716553,349.238922 244.958801,339.909912 244.621277,330.601562 
	C244.241470,320.126862 236.719009,314.496185 227.178574,317.073334 
	C221.878693,318.505005 218.842606,322.406189 218.189957,328.321960 
	C217.018188,338.943085 217.494263,349.592651 217.479477,360.235596 
	C217.474091,364.109894 216.902054,367.535675 212.070633,368.408569 
	C206.296417,369.451721 202.925217,367.102722 202.857224,361.209930 
	C202.713196,348.729187 202.745773,336.245911 202.782516,323.763885 
	C202.793015,320.199432 202.183350,316.956024 200.356567,313.759979 
	C196.631592,307.242889 199.511368,302.612518 206.944885,302.639130 
	C209.666641,302.648895 212.401779,302.910370 214.526688,304.635559 
	C217.018646,306.658783 219.311813,306.495544 222.162109,304.786865 
z"/>
<path fill="#000000" opacity="1.000000" stroke="none" 
	d="
M409.659424,333.899017 
	C409.657959,325.753876 409.584656,318.093323 409.680023,310.434875 
	C409.747040,305.051849 411.668274,302.848602 416.037567,302.698273 
	C421.037720,302.526276 424.007996,304.904358 424.071747,310.101685 
	C424.292236,328.082397 424.313354,346.066833 424.229736,364.048981 
	C424.210144,368.263641 419.383392,370.254089 414.662537,367.391083 
	C410.962311,365.147095 408.152222,365.694489 404.496307,367.076721 
	C387.078705,373.661957 369.917572,362.599792 368.917694,343.870209 
	C368.297180,332.246063 368.733948,320.565247 368.703918,308.909882 
	C368.693939,305.030243 370.894958,303.135956 374.516113,302.735626 
	C378.136108,302.335510 381.308777,303.207489 382.472382,307.094971 
	C383.080109,309.125397 383.195984,311.356476 383.216797,313.500000 
	C383.310394,323.157043 383.196777,332.816620 383.342468,342.472504 
	C383.449371,349.558105 388.361877,354.777405 395.273285,355.525757 
	C401.612885,356.212158 407.300537,351.672974 408.828705,344.808197 
	C409.595825,341.362030 409.727783,337.886383 409.659424,333.899017 
z"/>
<path fill="#000000" opacity="1.000000" stroke="none" 
	d="
M746.993652,354.179260 
	C749.233398,355.586823 751.356567,355.974762 753.539124,355.490417 
	C756.587952,354.813873 759.402771,353.616791 759.732056,349.967194 
	C760.044250,346.506683 757.672974,344.887085 754.848328,343.896179 
	C751.240784,342.630646 747.560913,341.572723 743.932922,340.363434 
	C733.128906,336.762299 727.586731,328.941620 728.904907,319.214111 
	C730.224487,309.477142 738.833679,302.224457 749.688049,301.907990 
	C755.636230,301.734558 761.208801,303.244629 766.328613,306.354156 
	C769.024048,307.991272 770.854736,310.359955 771.731812,313.291199 
	C772.779968,316.794128 772.929932,320.493713 769.363586,322.671173 
	C766.012451,324.717224 762.578308,323.948303 759.795105,321.179901 
	C757.169067,318.567719 754.677795,315.978607 750.471619,316.221252 
	C747.157104,316.412506 744.495605,317.318726 743.807373,320.925934 
	C743.137207,324.438751 745.533569,326.183807 748.258484,327.233185 
	C752.752747,328.963837 757.451782,330.169342 761.924072,331.948975 
	C770.304260,335.283539 774.440125,341.486816 774.301453,349.949982 
	C774.169312,358.016388 769.798645,364.052460 761.564514,367.238586 
	C753.102905,370.512634 744.903870,369.645599 737.087646,365.175812 
	C733.665222,363.218628 730.943542,360.490662 729.996887,356.537109 
	C729.232300,353.343964 729.249512,350.076538 732.464661,348.061798 
	C735.715759,346.024628 738.916748,346.854767 741.710205,349.105896 
	C743.508362,350.554962 745.036499,352.339172 746.993652,354.179260 
z"/>
<path fill="#000000" opacity="1.000000" stroke="none" 
	d="
M811.666382,316.945251 
	C806.560913,316.423981 804.632690,318.367340 804.854919,323.189514 
	C805.176270,330.161957 804.838623,337.163757 805.121887,344.139221 
	C805.410461,351.243225 807.550354,353.709351 814.388367,355.901398 
	C818.777893,357.308533 820.239990,360.089081 819.197021,365.266937 
	C818.301392,369.713074 814.758362,369.240295 811.686035,368.872437 
	C798.674011,367.314575 790.292419,357.472504 789.914429,343.288147 
	C789.723938,336.140289 789.798645,328.982300 789.903442,321.831116 
	C789.947449,318.829498 789.079346,317.232452 785.745789,317.060913 
	C781.267944,316.830536 779.429565,313.869141 779.372437,309.649811 
	C779.314331,305.358154 781.773987,303.090698 785.773071,302.874542 
	C789.133850,302.692871 790.026978,301.145264 789.879517,298.128296 
	C789.741760,295.309540 789.766968,292.466522 789.964905,289.651398 
	C790.279907,285.170593 792.699341,282.659485 797.306458,282.483307 
	C802.042664,282.302185 804.392090,284.927368 804.888733,289.308472 
	C805.205566,292.103607 805.237122,294.962250 805.071045,297.773193 
	C804.859558,301.354858 806.128357,303.004089 809.897461,302.807343 
	C813.364990,302.626343 816.548584,303.418304 818.155823,307.081268 
	C820.306152,311.981659 818.070007,315.632294 811.666382,316.945251 
z"/>
<path fill="#000000" opacity="1.000000" stroke="none" 
	d="
M348.332214,329.026428 
	C348.352539,334.183777 348.229492,338.853760 348.427979,343.510101 
	C348.738312,350.791382 350.828094,353.404449 357.775726,355.801239 
	C361.579895,357.113647 363.203613,360.622101 362.007263,365.089111 
	C360.988220,368.894012 358.117462,369.123352 354.890625,368.730469 
	C342.201843,367.185486 334.455597,358.331726 333.926697,344.316742 
	C333.650482,336.997070 333.772919,329.659454 333.840576,322.331116 
	C333.868134,319.346100 333.444824,317.226135 329.731903,316.897491 
	C325.841705,316.553131 323.871521,313.913879 323.881775,310.055145 
	C323.891937,306.233032 325.829071,303.489166 329.670105,303.099884 
	C333.324036,302.729553 333.932373,300.822845 333.849182,297.745697 
	C333.768555,294.762421 333.865173,291.741455 334.255890,288.786224 
	C334.821899,284.505402 337.642700,282.311707 341.825806,282.327881 
	C345.986664,282.343964 348.201874,284.946564 348.630402,288.916748 
	C348.950897,291.886017 349.071472,294.902679 348.959656,297.886169 
	C348.825470,301.467346 350.162689,303.138214 353.888916,302.960571 
	C355.503906,302.883545 357.238342,303.212463 358.763214,303.776764 
	C362.070740,305.000763 363.044281,307.864044 362.853210,311.042877 
	C362.663879,314.192871 360.959534,316.169403 357.648560,316.815704 
	C354.773102,317.376984 350.996826,315.576538 349.152893,318.271179 
	C347.170013,321.168762 348.620605,325.079468 348.332214,329.026428 
z"/>
<path fill="#000000" opacity="1.000000" stroke="none" 
	d="
M709.725952,316.495239 
	C702.467224,318.828857 698.588379,324.559753 698.421021,333.153778 
	C698.242676,342.313873 698.424561,351.482178 698.170593,360.639160 
	C698.007996,366.501709 695.674377,368.403870 690.089722,368.366333 
	C686.064819,368.339294 683.931763,366.536407 683.465820,362.507629 
	C682.523987,354.365051 683.283447,346.198639 682.994385,338.047760 
	C682.835083,333.553955 682.831543,329.051941 682.870483,324.554565 
	C682.908264,320.195465 683.362244,316.012390 677.681335,314.168182 
	C674.949036,313.281250 674.659241,309.990479 675.226440,307.193146 
	C675.824951,304.241211 677.816162,302.532440 680.701294,302.091614 
	C685.588318,301.344971 690.465576,301.757019 694.790833,304.186462 
	C697.686951,305.813141 700.059021,306.256073 703.066895,304.521606 
	C706.145935,302.746063 709.711304,302.605560 713.262695,302.632538 
	C717.596619,302.665466 720.304199,304.377106 720.614258,308.945953 
	C720.902100,313.186523 718.406982,315.760071 713.618652,316.209961 
	C712.458557,316.318970 711.291382,316.352936 709.725952,316.495239 
z"/>
<path fill="#000000" opacity="1.000000" stroke="none" 
	d="
M449.065613,365.906952 
	C445.689331,369.037262 442.020142,369.107422 438.576782,367.463654 
	C435.359131,365.927582 435.752319,362.482819 435.752991,359.486725 
	C435.755829,346.826660 435.733002,334.166168 435.834167,321.506775 
	C435.859619,318.321716 435.671021,315.780212 431.964081,314.429718 
	C428.499023,313.167480 427.774567,309.937622 428.430084,306.510773 
	C429.080627,303.110016 431.650269,302.072296 434.683472,301.860291 
	C438.941376,301.562622 442.995789,302.484039 446.729187,304.497650 
	C449.136322,305.795837 451.328430,306.095520 453.756775,304.584961 
	C457.022369,302.553650 460.721649,302.533936 464.411743,302.659271 
	C468.812561,302.808716 471.170868,304.995728 471.269867,309.494354 
	C471.369049,314.002258 469.334808,316.034363 464.699799,316.333862 
	C456.819855,316.843140 452.143433,321.998169 451.041626,330.316620 
	C449.722168,340.278290 450.937439,350.279602 450.388733,360.248840 
	C450.288300,362.073120 450.378937,363.933350 449.065613,365.906952 
z"/>
<path fill="#000000" opacity="1.000000" stroke="none" 
	d="
M760.063843,404.996216 
	C751.770569,404.666290 743.959412,404.458893 736.169250,403.937744 
	C733.854858,403.782898 730.582947,403.746552 730.715576,400.213928 
	C730.841309,396.865540 733.868103,396.821899 736.339661,396.602844 
	C753.627197,395.070557 770.884338,396.293121 788.138733,397.291504 
	C796.593872,397.780762 805.040894,398.416779 813.486877,399.050140 
	C815.474548,399.199249 818.670105,398.160309 818.799683,401.069672 
	C818.941772,404.258240 815.424377,403.829681 813.391724,403.891510 
	C796.780334,404.396729 780.162476,404.686646 763.546326,405.034454 
	C762.549561,405.055328 761.551453,405.012085 760.063843,404.996216 
z"/>
<path fill="#000000" opacity="1.000000" stroke="none" 
	d="
M278.920013,396.739624 
	C282.878784,400.425568 280.360199,401.698761 277.098083,402.212402 
	C267.386536,403.741516 257.588226,404.307648 247.768097,403.957397 
	C235.309509,403.513092 222.858368,402.859131 210.404556,402.283630 
	C209.078461,402.222412 207.737686,402.183258 206.437393,401.947845 
	C205.277878,401.737915 204.095993,401.244049 204.068359,399.804504 
	C204.040375,398.345398 205.208969,397.896759 206.378922,397.639465 
	C207.512604,397.390106 208.670334,397.114777 209.821045,397.098236 
	C230.420380,396.802246 250.970016,394.184784 271.606903,395.747833 
	C273.921143,395.923126 276.218597,396.320312 278.920013,396.739624 
z"/>
<path fill="#000000" opacity="1.000000" stroke="none" 
	d="
M613.507996,397.600891 
	C618.468018,393.244873 623.984192,394.316010 629.400635,394.901306 
	C630.452698,395.014984 631.103210,395.756653 631.198914,396.940918 
	C631.852539,405.027435 628.847046,408.712280 620.602539,410.447235 
	C622.428162,410.543091 624.260803,410.568970 626.077759,410.751312 
	C628.744934,411.019073 630.916443,412.161926 631.743591,414.886536 
	C632.622253,417.780945 631.458313,420.115021 629.241150,421.934692 
	C625.840210,424.726013 618.697571,425.156128 615.062500,422.719513 
	C612.693604,421.131592 611.399536,419.197540 612.526184,415.972504 
	C613.759827,412.441162 614.262695,408.678619 612.608765,405.028656 
	C611.472168,402.520111 611.852112,400.178070 613.507996,397.600891 
M622.736023,399.987946 
	C620.295471,398.948883 619.400269,400.205750 619.379333,402.399292 
	C619.367249,403.671021 620.201782,404.717560 621.508728,404.506622 
	C624.009094,404.103088 623.903931,402.340302 622.736023,399.987946 
M619.602539,416.463531 
	C618.444275,416.793762 617.535889,417.710907 618.970520,418.314941 
	C620.921204,419.136353 623.249329,419.537964 625.162903,417.531616 
	C623.584290,415.764069 621.830261,416.553284 619.602539,416.463531 
z"/>
<path fill="#000000" opacity="1.000000" stroke="none" 
	d="
M581.503784,392.432434 
	C585.788513,398.022247 585.572083,403.898376 583.654480,409.765808 
	C582.150391,414.368378 578.129089,415.843628 573.739380,415.821716 
	C569.242310,415.799255 565.675049,413.764069 564.122864,409.275299 
	C562.676270,405.091675 562.531616,400.800537 563.959167,396.555939 
	C566.321716,389.531067 573.720276,387.660614 581.503784,392.432434 
M571.215332,404.240112 
	C571.491699,406.436401 570.846802,409.635864 574.297852,409.358337 
	C577.112244,409.131927 576.626709,406.205200 576.803711,404.105988 
	C576.817688,403.940582 576.841309,403.767426 576.809570,403.608032 
	C576.275818,400.925964 578.234070,396.344818 574.058533,396.247620 
	C569.656494,396.145142 571.774292,400.772583 571.215332,404.240112 
z"/>
<path fill="#000000" opacity="1.000000" stroke="none" 
	d="
M333.907990,394.486938 
	C334.277588,391.234039 336.072601,389.975739 338.678406,389.917999 
	C341.317078,389.859558 343.990784,389.869995 346.597443,390.227448 
	C350.736542,390.795105 353.881775,392.815765 354.138092,397.417938 
	C354.393219,401.998657 352.538971,405.534607 347.986206,407.090546 
	C344.689453,408.217224 340.642456,408.100128 340.842438,413.426056 
	C340.897522,414.891937 338.786377,415.391724 337.188873,415.154572 
	C334.734009,414.790161 333.973358,412.973999 333.938660,410.841309 
	C333.852417,405.541565 333.888550,400.239807 333.907990,394.486938 
M341.566589,399.945496 
	C342.032440,402.185669 343.485626,401.953552 344.932495,401.135620 
	C345.975830,400.545807 346.658722,399.502563 346.351440,398.206757 
	C346.041901,396.901611 345.028961,396.367310 343.750854,396.315765 
	C341.547699,396.226929 341.426544,397.698334 341.566589,399.945496 
z"/>
<path fill="#000000" opacity="1.000000" stroke="none" 
	d="
M519.862427,415.047424 
	C515.610962,415.491119 515.079834,412.826630 515.005127,410.022614 
	C514.881470,405.378571 514.917114,400.728943 514.957703,396.082336 
	C514.983398,393.132874 514.455200,389.436127 518.626160,389.099304 
	C522.867065,388.756836 522.032715,392.648560 522.551025,395.290131 
	C524.276367,396.068329 525.667603,394.601501 527.299683,394.677673 
	C529.868958,394.797638 532.106262,395.544312 532.837830,398.051605 
	C534.198242,402.713989 534.041809,407.557831 533.540100,412.346008 
	C533.345154,414.207001 532.059387,415.270355 530.074951,415.184265 
	C528.088440,415.098053 526.990540,413.893860 526.836243,412.053223 
	C526.628723,409.578094 526.708984,407.079865 526.624329,404.592987 
	C526.577820,403.228973 526.418396,401.696228 524.702515,401.599152 
	C522.662720,401.483765 522.592041,403.162720 522.320923,404.690216 
	C521.713257,408.113708 523.882507,412.102478 519.862427,415.047424 
z"/>
<path fill="#000000" opacity="1.000000" stroke="none" 
	d="
M674.859558,394.715759 
	C680.755798,394.844574 682.907776,398.058411 683.115662,403.089355 
	C683.122559,403.255707 683.126404,403.422272 683.135254,403.588501 
	C683.747742,415.099243 681.771484,417.012299 670.359192,415.787872 
	C667.291199,415.458740 664.805725,413.981995 664.306213,410.758209 
	C663.774719,407.328247 665.717041,405.065002 668.824036,403.858795 
	C670.942078,403.036499 673.427246,403.313049 675.465332,401.783081 
	C675.117737,399.473999 673.945862,399.272949 672.484070,400.626373 
	C670.971924,402.026398 669.612976,403.543854 667.313538,402.438721 
	C665.910583,401.764435 665.535156,400.509583 665.827148,399.075439 
	C666.335938,396.576813 668.304749,395.632019 670.464417,395.097717 
	C671.738220,394.782593 673.100769,394.826447 674.859558,394.715759 
z"/>
<path fill="#000000" opacity="1.000000" stroke="none" 
	d="
M488.435913,408.938660 
	C490.554321,408.592560 492.301880,408.594208 492.590698,410.854248 
	C492.803986,412.523438 491.643127,413.588654 490.324219,414.421631 
	C486.928436,416.566254 480.396332,416.018585 477.696075,413.366608 
	C474.556610,410.283264 473.665466,402.983368 476.146851,398.884491 
	C478.677582,394.704102 482.737366,394.165833 487.069550,395.041321 
	C490.028625,395.639343 492.041412,397.549561 493.075592,400.444519 
	C494.797638,405.264984 493.466888,407.203247 488.398285,407.351410 
	C486.619446,407.403381 484.760834,406.885101 482.622742,408.124847 
	C483.927216,411.836853 486.050995,410.228119 488.435913,408.938660 
z"/>
<path fill="#000000" opacity="1.000000" stroke="none" 
	d="
M405.925934,415.294922 
	C395.749329,416.881378 389.906555,409.765472 393.275085,400.453766 
	C394.466705,397.159668 396.834625,395.295349 400.225555,394.832520 
	C403.646790,394.365540 406.914398,394.820099 409.291016,397.670593 
	C411.218628,399.982422 411.942566,402.813385 410.934845,405.601593 
	C409.966003,408.282257 407.243713,407.029785 405.243835,407.322418 
	C403.686920,407.550262 401.888580,406.759430 400.623199,408.464081 
	C401.061096,410.816528 402.509521,410.892639 404.262573,410.008026 
	C406.327606,408.965912 408.833313,407.161652 410.073578,410.330322 
	C411.113770,412.987793 408.618195,414.366150 405.925934,415.294922 
z"/>
<path fill="#000000" opacity="1.000000" stroke="none" 
	d="
M364.117615,403.802246 
	C364.290009,405.812103 363.649597,407.567841 365.369446,409.207703 
	C368.401337,408.040771 367.441254,405.282135 367.738495,403.067200 
	C368.142853,400.053711 366.300842,395.210205 371.292816,395.263947 
	C376.378571,395.318726 374.939087,400.180115 375.123322,403.462006 
	C375.225616,405.283569 375.191803,407.118591 375.115356,408.943176 
	C374.953430,412.808411 375.033936,417.008118 369.036316,414.275330 
	C367.738739,413.684113 366.895020,414.903351 365.832672,415.246582 
	C361.028503,416.798798 357.432129,414.742310 356.892639,409.733185 
	C356.538666,406.446686 356.751526,403.096558 356.755707,399.774963 
	C356.758636,397.440582 357.296967,395.248901 360.111145,395.138367 
	C362.823792,395.031830 363.772278,397.038696 364.011261,399.393036 
	C364.145050,400.710785 364.089691,402.047699 364.117615,403.802246 
z"/>
<path fill="#000000" opacity="1.000000" stroke="none" 
	d="
M643.700378,401.230927 
	C643.626343,396.533691 644.697205,393.605957 649.813721,395.642212 
	C651.296936,396.232513 652.354248,395.257507 653.608826,394.999481 
	C656.559753,394.392609 659.549500,394.430023 660.990479,397.508026 
	C663.342834,402.532562 662.460693,407.905518 661.758850,413.148407 
	C661.574280,414.526978 660.157227,415.194885 658.682800,415.216095 
	C656.932434,415.241272 655.740906,414.290375 655.446228,412.685364 
	C655.090027,410.744934 655.168274,408.728943 654.958679,406.756226 
	C654.762756,404.912231 655.606506,402.667542 653.164368,401.535187 
	C650.574646,402.188080 651.239990,404.315887 651.125732,406.000671 
	C650.991028,407.987183 651.197449,410.006927 650.946045,411.972626 
	C650.685425,414.010529 649.379822,415.270782 647.199585,415.206055 
	C644.971008,415.139893 643.891724,413.761566 643.819458,411.669891 
	C643.704651,408.347961 643.732605,405.021149 643.700378,401.230927 
z"/>
<path fill="#000000" opacity="1.000000" stroke="none" 
	d="
M440.858521,404.919128 
	C440.862000,403.108673 440.868408,401.781403 440.865265,400.454163 
	C440.840759,390.189484 444.078461,387.658020 454.233002,389.987183 
	C455.959625,390.383240 457.497101,391.019470 457.449127,393.121033 
	C457.402100,395.181183 455.949921,395.922577 454.148102,396.147522 
	C453.327118,396.250061 452.491272,396.227234 451.665344,396.298187 
	C450.636780,396.386597 449.621185,396.607574 449.466919,397.853973 
	C449.316956,399.065674 450.129303,399.638000 451.166748,399.930206 
	C451.964111,400.154846 452.787140,400.289856 453.581299,400.524017 
	C454.945068,400.926117 456.041504,401.671722 456.052155,403.244476 
	C456.064728,405.103241 454.733673,406.037872 453.178925,406.057800 
	C449.925812,406.099518 448.918152,407.727448 448.862122,410.732727 
	C448.815247,413.245239 447.830231,415.364838 444.741791,415.241516 
	C441.629974,415.117279 441.103516,412.812225 440.924347,410.377075 
	C440.802887,408.726135 440.872742,407.061096 440.858521,404.919128 
z"/>
<path fill="#000000" opacity="1.000000" stroke="none" 
	d="
M511.203949,404.758911 
	C513.820312,409.404785 513.132935,412.696167 509.472961,414.703583 
	C505.336212,416.972534 498.530701,416.138824 496.554749,413.118195 
	C495.774017,411.924744 495.388245,410.603729 496.320282,409.406677 
	C497.395508,408.025818 498.885498,407.922791 500.320862,408.868286 
	C501.779907,409.829346 503.011078,411.604553 505.240021,409.667664 
	C504.683197,407.424225 502.729797,407.544830 501.039001,407.208618 
	C497.726959,406.549988 495.621399,404.816803 495.665375,401.139252 
	C495.712036,397.235535 498.077515,395.424133 501.535004,394.897980 
	C504.502625,394.446381 507.579407,394.326752 510.211731,396.184937 
	C511.816406,397.317688 512.830872,398.962433 511.664459,400.904999 
	C510.582764,402.706451 508.936005,402.418945 507.306671,401.512878 
	C506.059265,400.819183 504.901581,399.560486 502.940186,400.879456 
	C504.843018,403.926208 508.831085,402.293488 511.203949,404.758911 
z"/>
<path fill="#000000" opacity="1.000000" stroke="none" 
	d="
M388.241821,402.255615 
	C384.213165,403.485809 385.508698,406.581360 385.258423,409.037506 
	C385.060608,410.979034 385.566345,413.105347 383.668304,414.524200 
	C381.489105,416.153198 378.410706,414.944580 378.175964,411.946228 
	C377.828186,407.503998 377.949310,402.999939 378.220978,398.543549 
	C378.390015,395.770844 380.128082,394.261749 383.031555,395.345428 
	C384.393860,395.853912 385.469635,395.842499 386.789001,395.256104 
	C389.099823,394.228973 391.202972,394.678589 391.956085,397.309174 
	C392.727295,400.003021 391.623169,401.839325 388.241821,402.255615 
z"/>
<path fill="#000000" opacity="1.000000" stroke="none" 
	d="
M474.462769,398.822815 
	C474.197357,400.422638 473.586884,401.723297 472.401123,401.788177 
	C467.001160,402.083740 467.177795,405.792023 467.276031,409.612091 
	C467.341522,412.156982 467.390472,415.100525 463.852295,415.099030 
	C460.030304,415.097412 460.229919,411.981171 460.208344,409.275665 
	C460.183228,406.124786 459.954315,402.959290 460.182037,399.826935 
	C460.430145,396.414032 461.721558,393.805298 465.926300,395.572083 
	C467.207733,396.110504 468.126953,395.464722 469.222931,395.129150 
	C472.194244,394.219269 474.097839,395.194183 474.462769,398.822815 
z"/>
<path fill="#000000" opacity="1.000000" stroke="none" 
	d="
M587.696289,408.805664 
	C587.698792,405.357483 587.663391,402.381805 587.715088,399.407623 
	C587.771606,396.152191 589.160156,394.079224 592.635376,395.441223 
	C594.504883,396.173981 595.749817,395.413818 597.294678,394.977142 
	C599.336243,394.400055 600.952209,395.161285 601.562012,397.256470 
	C602.186035,399.400452 601.700439,401.662384 599.321655,401.936523 
	C595.094543,402.423676 594.872192,405.134583 594.927124,408.293304 
	C594.932861,408.623688 594.941956,408.955963 594.915710,409.284668 
	C594.707520,411.887238 595.057312,415.140869 591.247314,415.130707 
	C587.411743,415.120483 587.762756,411.925842 587.696289,408.805664 
z"/>
<path fill="#000000" opacity="1.000000" stroke="none" 
	d="
M685.691040,399.070129 
	C685.691528,396.762238 685.684448,394.941376 685.697327,393.120697 
	C685.713501,390.831421 686.670593,389.159790 689.109680,389.100159 
	C691.526978,389.041016 692.792603,390.738464 692.841797,392.917938 
	C692.983521,399.200836 693.000610,405.491486 692.844360,411.773529 
	C692.788025,414.036316 691.312378,415.421417 688.867249,415.206238 
	C686.646606,415.010803 685.733948,413.538971 685.711121,411.474579 
	C685.667236,407.502563 685.694519,403.529724 685.691040,399.070129 
z"/>
<path fill="#000000" opacity="1.000000" stroke="none" 
	d="
M606.093628,394.999756 
	C608.681702,395.147705 609.942078,396.531891 610.020020,398.513123 
	C610.196411,402.995422 610.162659,407.492462 610.019653,411.977325 
	C609.969788,413.541626 608.978271,414.792480 607.283569,415.135193 
	C606.065857,415.381500 604.998535,415.042694 604.128174,414.096252 
	C601.558411,411.301849 602.647522,397.831024 606.093628,394.999756 
z"/>
<path fill="#000000" opacity="1.000000" stroke="none" 
	d="
M640.926147,405.967407 
	C640.870544,408.252838 640.952820,410.093262 640.721863,411.893494 
	C640.463623,413.906525 639.346130,415.295715 637.094238,415.194366 
	C635.133911,415.106140 633.925964,413.883881 633.868469,412.046387 
	C633.723022,407.405853 633.707764,402.754486 633.860352,398.114685 
	C633.920166,396.295776 635.153931,395.020325 637.116638,395.006775 
	C638.796875,394.995117 639.867676,396.017151 640.371704,397.592682 
	C641.200012,400.181580 640.861877,402.858551 640.926147,405.967407 
z"/>
<path fill="#000000" opacity="1.000000" stroke="none" 
	d="
M429.269531,412.753906 
	C428.191803,415.984467 426.104401,416.293213 423.694397,415.290710 
	C421.648224,414.439484 421.502533,412.529419 421.887238,410.698425 
	C422.322968,408.624451 423.918823,407.778046 425.918121,407.917603 
	C428.621124,408.106232 429.453094,409.886322 429.269531,412.753906 
z"/>
<path fill="#000000" opacity="1.000000" stroke="none" 
	d="
M547.442871,415.470642 
	C544.441101,414.041443 544.712097,412.001434 545.912231,409.928070 
	C546.863159,408.285187 548.474731,407.830658 550.234680,408.489288 
	C551.870789,409.101624 552.309875,410.504730 552.202881,412.135040 
	C552.019836,414.923889 550.364807,415.825958 547.442871,415.470642 
z"/>
<path fill="#000000" opacity="1.000000" stroke="none" 
	d="
M609.726929,387.869385 
	C611.372009,391.667572 609.787964,393.133850 606.399658,393.308929 
	C604.304871,393.417236 602.747437,392.605225 602.547913,390.370209 
	C602.323059,387.851959 603.840637,386.800323 606.187439,386.710449 
	C607.365051,386.665375 608.508545,386.771942 609.726929,387.869385 
z"/>
<path fill="#000000" opacity="1.000000" stroke="none" 
	d="
M640.978516,389.189392 
	C641.163574,392.450439 639.422852,393.274261 636.964844,393.305389 
	C635.135986,393.328552 633.746643,392.638336 633.138794,390.826019 
	C632.655579,389.385162 633.130432,388.067108 634.410706,387.435120 
	C636.817810,386.246887 639.179810,386.112946 640.978516,389.189392 
z"/>
</svg>